<svg width="26" height="25" viewBox="0 0 26 25" fill="none" xmlns="http://www.w3.org/2000/svg">
<g clip-path="url(#clip0_124_115)">
<path d="M1.11719 14.1875H24.9062V10.3906H1.11719V14.1875ZM11.1016 23.8906H14.8984V0.6875H11.1016V23.8906Z" fill="white"/>
<mask id="mask0_124_115" style="mask-type:luminance" maskUnits="userSpaceOnUse" x="0" y="0" width="26" height="25">
<path d="M26 0H0V25H26V0Z" fill="white"/>
<path d="M1.11719 14.1875H24.9062V10.3906H1.11719V14.1875ZM11.1016 23.8906H14.8984V0.6875H11.1016V23.8906Z" fill="black"/>
</mask>
<g mask="url(#mask0_124_115)">
<path d="M1.1172 14.1875H0.717194V14.5875H1.1172V14.1875ZM24.9062 14.1875V14.5875H25.3063V14.1875H24.9062ZM24.9062 10.3906H25.3063V9.99062H24.9062V10.3906ZM1.1172 10.3906V9.99062H0.717194V10.3906H1.1172ZM11.1016 23.8906H10.7016V24.2906H11.1016V23.8906ZM14.8984 23.8906V24.2906H15.2984V23.8906H14.8984ZM14.8984 0.687498H15.2984V0.287498H14.8984V0.687498ZM11.1016 0.687498V0.287498H10.7016V0.687498H11.1016ZM1.1172 14.1875V14.5875H24.9062V14.1875V13.7875H1.1172V14.1875ZM24.9062 14.1875H25.3063V10.3906H24.9062H24.5062V14.1875H24.9062ZM24.9062 10.3906V9.99062H1.1172V10.3906V10.7906H24.9062V10.3906ZM1.1172 10.3906H0.717194V14.1875H1.1172H1.5172V10.3906H1.1172ZM11.1016 23.8906V24.2906H14.8984V23.8906V23.4906H11.1016V23.8906ZM14.8984 23.8906H15.2984V0.687498H14.8984H14.4984V23.8906H14.8984ZM14.8984 0.687498V0.287498H11.1016V0.687498V1.0875H14.8984V0.687498ZM11.1016 0.687498H10.7016V23.8906H11.1016H11.5016V0.687498H11.1016Z" fill="white"/>
</g>
</g>
<defs>
<clipPath id="clip0_124_115">
<rect width="26" height="25" fill="white"/>
</clipPath>
</defs>
</svg>
