<svg width="26" height="24" viewBox="0 0 26 24" fill="none" xmlns="http://www.w3.org/2000/svg">
<g clip-path="url(#clip0_124_93)">
<path d="M1.08887 13.6797H24.7178V10.041H1.08887V13.6797ZM12.8809 5.70605C13.5397 5.70605 14.0863 5.48893 14.5205 5.05469C14.9697 4.60547 15.1943 4.05892 15.1943 3.41504C15.1943 2.75618 14.9697 2.20964 14.5205 1.77539C14.0863 1.32617 13.5397 1.10156 12.8809 1.10156C12.237 1.10156 11.6904 1.32617 11.2412 1.77539C10.807 2.20964 10.5898 2.75618 10.5898 3.41504C10.5898 4.05892 10.807 4.60547 11.2412 5.05469C11.6904 5.48893 12.237 5.70605 12.8809 5.70605ZM12.8809 22.6191C13.5397 22.6191 14.0863 22.3945 14.5205 21.9453C14.9697 21.4961 15.1943 20.9495 15.1943 20.3057C15.1943 19.6618 14.9697 19.1227 14.5205 18.6885C14.0863 18.2393 13.5397 18.0146 12.8809 18.0146C12.237 18.0146 11.6904 18.2393 11.2412 18.6885C10.807 19.1227 10.5898 19.6618 10.5898 20.3057C10.5898 20.9495 10.807 21.4961 11.2412 21.9453C11.6904 22.3945 12.237 22.6191 12.8809 22.6191Z" fill="white"/>
<mask id="mask0_124_93" style="mask-type:luminance" maskUnits="userSpaceOnUse" x="0" y="0" width="26" height="24">
<path d="M26 0H0V24H26V0Z" fill="white"/>
<path d="M1.08887 13.6797H24.7178V10.041H1.08887V13.6797ZM12.8809 5.70605C13.5397 5.70605 14.0863 5.48893 14.5205 5.05469C14.9697 4.60547 15.1943 4.05892 15.1943 3.41504C15.1943 2.75618 14.9697 2.20964 14.5205 1.77539C14.0863 1.32617 13.5397 1.10156 12.8809 1.10156C12.237 1.10156 11.6904 1.32617 11.2412 1.77539C10.807 2.20964 10.5898 2.75618 10.5898 3.41504C10.5898 4.05892 10.807 4.60547 11.2412 5.05469C11.6904 5.48893 12.237 5.70605 12.8809 5.70605ZM12.8809 22.6191C13.5397 22.6191 14.0863 22.3945 14.5205 21.9453C14.9697 21.4961 15.1943 20.9495 15.1943 20.3057C15.1943 19.6618 14.9697 19.1227 14.5205 18.6885C14.0863 18.2393 13.5397 18.0146 12.8809 18.0146C12.237 18.0146 11.6904 18.2393 11.2412 18.6885C10.807 19.1227 10.5898 19.6618 10.5898 20.3057C10.5898 20.9495 10.807 21.4961 11.2412 21.9453C11.6904 22.3945 12.237 22.6191 12.8809 22.6191Z" fill="black"/>
</mask>
<g mask="url(#mask0_124_93)">
<path d="M1.08888 13.6797H0.688873V14.0797H1.08888V13.6797ZM24.7178 13.6797V14.0797H25.1178V13.6797H24.7178ZM24.7178 10.041H25.1178V9.64103H24.7178V10.041ZM1.08888 10.041V9.64103H0.688873V10.041H1.08888ZM14.5205 1.7754L14.2327 2.05357L14.2425 2.063L14.5205 1.7754ZM11.2412 5.0547L10.9535 5.33287L10.9632 5.34229L11.2412 5.0547ZM14.5205 21.9453L14.2376 21.6624L14.2329 21.6673L14.5205 21.9453ZM14.5205 18.6885L14.2327 18.9666L14.2425 18.9761L14.5205 18.6885ZM11.2412 21.9453L10.9536 22.2234L10.9584 22.2282L11.2412 21.9453ZM1.08888 13.6797V14.0797H24.7178V13.6797V13.2797H1.08888V13.6797ZM24.7178 13.6797H25.1178V10.041H24.7178H24.3178V13.6797H24.7178ZM24.7178 10.041V9.64103H1.08888V10.041V10.441H24.7178V10.041ZM1.08888 10.041H0.688873V13.6797H1.08888H1.48888V10.041H1.08888ZM12.8809 5.70606V6.10606C13.6372 6.10606 14.2883 5.85264 14.8034 5.33754L14.5205 5.0547L14.2377 4.77185C13.8843 5.12525 13.4422 5.30606 12.8809 5.30606V5.70606ZM14.5205 5.0547L14.8034 5.33754C15.3287 4.81218 15.5943 4.1634 15.5943 3.41505H15.1943H14.7943C14.7943 3.95445 14.6107 4.39878 14.2377 4.77185L14.5205 5.0547ZM15.1943 3.41505H15.5943C15.5943 2.65436 15.3303 2.00189 14.7985 1.48781L14.5205 1.7754L14.2425 2.063C14.6091 2.4174 14.7943 2.85803 14.7943 3.41505H15.1943ZM14.5205 1.7754L14.8081 1.49739C14.294 0.965579 13.6415 0.701569 12.8809 0.701569V1.10157V1.50157C13.4379 1.50157 13.8783 1.68694 14.2327 2.05357L14.5205 1.7754ZM12.8809 1.10157V0.701569C12.1325 0.701569 11.4837 0.96719 10.9584 1.49256L11.2412 1.7754L11.5241 2.05824C11.8971 1.68517 12.3415 1.50157 12.8809 1.50157V1.10157ZM11.2412 1.7754L10.9584 1.49256C10.4433 2.00765 10.1898 2.65866 10.1898 3.41505H10.5898H10.9898C10.9898 2.85373 11.1707 2.41164 11.5241 2.05824L11.2412 1.7754ZM10.5898 3.41505H10.1898C10.1898 4.15914 10.4448 4.80656 10.9535 5.33287L11.2412 5.0547L11.5288 4.77669C11.1691 4.40455 10.9898 3.95872 10.9898 3.41505H10.5898ZM11.2412 5.0547L10.9632 5.34229C11.4895 5.85105 12.1368 6.10606 12.8809 6.10606V5.70606V5.30606C12.3372 5.30606 11.8914 5.12683 11.5192 4.7671L11.2412 5.0547ZM12.8809 22.6191V23.0191C13.6415 23.0191 14.294 22.7551 14.8081 22.2233L14.5205 21.9453L14.2329 21.6673C13.8785 22.0339 13.4379 22.2191 12.8809 22.2191V22.6191ZM14.5205 21.9453L14.8034 22.2282C15.3287 21.7028 15.5943 21.054 15.5943 20.3057H15.1943H14.7943C14.7943 20.8451 14.6106 21.2893 14.2376 21.6624L14.5205 21.9453ZM15.1943 20.3057H15.5943C15.5943 19.5571 15.3283 18.913 14.7985 18.4009L14.5205 18.6885L14.2425 18.9761C14.6111 19.3324 14.7943 19.7665 14.7943 20.3057H15.1943ZM14.5205 18.6885L14.8081 18.4105C14.294 17.8787 13.6415 17.6146 12.8809 17.6146V18.0146V18.4146C13.4379 18.4146 13.8783 18.6 14.2327 18.9666L14.5205 18.6885ZM12.8809 18.0146V17.6146C12.1325 17.6146 11.4837 17.8803 10.9584 18.4056L11.2412 18.6885L11.5241 18.9713C11.8971 18.5982 12.3415 18.4146 12.8809 18.4146V18.0146ZM11.2412 18.6885L10.9584 18.4056C10.4452 18.9188 10.1898 19.5614 10.1898 20.3057H10.5898H10.9898C10.9898 19.7621 11.1688 19.3266 11.5241 18.9713L11.2412 18.6885ZM10.5898 20.3057H10.1898C10.1898 21.0498 10.4449 21.6971 10.9536 22.2234L11.2412 21.9453L11.5288 21.6673C11.1691 21.2952 10.9898 20.8493 10.9898 20.3057H10.5898ZM11.2412 21.9453L10.9584 22.2282C11.4837 22.7535 12.1325 23.0191 12.8809 23.0191V22.6191V22.2191C12.3415 22.2191 11.8971 22.0355 11.5241 21.6625L11.2412 21.9453Z" fill="white"/>
</g>
</g>
<defs>
<clipPath id="clip0_124_93">
<rect width="26" height="24" fill="white"/>
</clipPath>
</defs>
</svg>
