<svg width="26" height="26" viewBox="0 0 26 26" fill="none" xmlns="http://www.w3.org/2000/svg">
<g clip-path="url(#clip0_124_85)">
<path d="M5.6123 12.8643C7.12858 12.8643 8.31283 12.3275 9.16504 11.2539C10.0283 10.1693 10.46 8.7028 10.46 6.85449V6.83789C10.46 4.98958 10.0283 3.52865 9.16504 2.45508C8.31283 1.38151 7.12858 0.844727 5.6123 0.844727C4.1071 0.844727 2.92285 1.38151 2.05957 2.45508C1.19629 3.52865 0.764648 4.98958 0.764648 6.83789V6.85449C0.764648 8.7028 1.19629 10.1693 2.05957 11.2539C2.92285 12.3275 4.1071 12.8643 5.6123 12.8643ZM5.6123 10.8721C4.80436 10.8721 4.17904 10.5179 3.73633 9.80957C3.29362 9.10124 3.07227 8.11621 3.07227 6.85449V6.83789C3.07227 5.57617 3.29362 4.59668 3.73633 3.89941C4.17904 3.19108 4.80436 2.83691 5.6123 2.83691C6.42025 2.83691 7.04557 3.19108 7.48828 3.89941C7.93099 4.59668 8.15234 5.57617 8.15234 6.83789V6.85449C8.15234 8.11621 7.93099 9.10124 7.48828 9.80957C7.04557 10.5179 6.42025 10.8721 5.6123 10.8721ZM6.69141 25L22.0312 1.04395H19.3418L3.96875 25H6.69141ZM20.3711 25.1992C21.8874 25.1992 23.0716 24.6624 23.9238 23.5889C24.7871 22.5042 25.2188 21.0378 25.2188 19.1895V19.1729C25.2188 17.3245 24.7871 15.8636 23.9238 14.79C23.0716 13.7165 21.8874 13.1797 20.3711 13.1797C18.8659 13.1797 17.6816 13.7165 16.8184 14.79C15.9551 15.8636 15.5234 17.3245 15.5234 19.1729V19.1895C15.5234 21.0378 15.9551 22.5042 16.8184 23.5889C17.6816 24.6624 18.8659 25.1992 20.3711 25.1992ZM20.3711 23.207C19.5632 23.207 18.9378 22.8529 18.4951 22.1445C18.0524 21.4362 17.8311 20.4512 17.8311 19.1895V19.1729C17.8311 17.9111 18.0524 16.9316 18.4951 16.2344C18.9378 15.526 19.5632 15.1719 20.3711 15.1719C21.179 15.1719 21.8044 15.526 22.2471 16.2344C22.6898 16.9316 22.9111 17.9111 22.9111 19.1729V19.1895C22.9111 20.4512 22.6898 21.4362 22.2471 22.1445C21.8044 22.8529 21.179 23.207 20.3711 23.207Z" fill="black"/>
<mask id="mask0_124_85" style="mask-type:luminance" maskUnits="userSpaceOnUse" x="0" y="0" width="26" height="26">
<path d="M26 0H0V26H26V0Z" fill="white"/>
<path d="M5.6123 12.8643C7.12858 12.8643 8.31283 12.3275 9.16504 11.2539C10.0283 10.1693 10.46 8.7028 10.46 6.85449V6.83789C10.46 4.98958 10.0283 3.52865 9.16504 2.45508C8.31283 1.38151 7.12858 0.844727 5.6123 0.844727C4.1071 0.844727 2.92285 1.38151 2.05957 2.45508C1.19629 3.52865 0.764648 4.98958 0.764648 6.83789V6.85449C0.764648 8.7028 1.19629 10.1693 2.05957 11.2539C2.92285 12.3275 4.1071 12.8643 5.6123 12.8643ZM5.6123 10.8721C4.80436 10.8721 4.17904 10.5179 3.73633 9.80957C3.29362 9.10124 3.07227 8.11621 3.07227 6.85449V6.83789C3.07227 5.57617 3.29362 4.59668 3.73633 3.89941C4.17904 3.19108 4.80436 2.83691 5.6123 2.83691C6.42025 2.83691 7.04557 3.19108 7.48828 3.89941C7.93099 4.59668 8.15234 5.57617 8.15234 6.83789V6.85449C8.15234 8.11621 7.93099 9.10124 7.48828 9.80957C7.04557 10.5179 6.42025 10.8721 5.6123 10.8721ZM6.69141 25L22.0312 1.04395H19.3418L3.96875 25H6.69141ZM20.3711 25.1992C21.8874 25.1992 23.0716 24.6624 23.9238 23.5889C24.7871 22.5042 25.2188 21.0378 25.2188 19.1895V19.1729C25.2188 17.3245 24.7871 15.8636 23.9238 14.79C23.0716 13.7165 21.8874 13.1797 20.3711 13.1797C18.8659 13.1797 17.6816 13.7165 16.8184 14.79C15.9551 15.8636 15.5234 17.3245 15.5234 19.1729V19.1895C15.5234 21.0378 15.9551 22.5042 16.8184 23.5889C17.6816 24.6624 18.8659 25.1992 20.3711 25.1992ZM20.3711 23.207C19.5632 23.207 18.9378 22.8529 18.4951 22.1445C18.0524 21.4362 17.8311 20.4512 17.8311 19.1895V19.1729C17.8311 17.9111 18.0524 16.9316 18.4951 16.2344C18.9378 15.526 19.5632 15.1719 20.3711 15.1719C21.179 15.1719 21.8044 15.526 22.2471 16.2344C22.6898 16.9316 22.9111 17.9111 22.9111 19.1729V19.1895C22.9111 20.4512 22.6898 21.4362 22.2471 22.1445C21.8044 22.8529 21.179 23.207 20.3711 23.207Z" fill="black"/>
</mask>
<g mask="url(#mask0_124_85)">
<path d="M9.16505 2.45509L8.85175 2.70379L8.85333 2.70575L9.16505 2.45509ZM2.05958 11.2539L1.74661 11.503L1.74786 11.5046L2.05958 11.2539ZM3.73634 3.89942L4.07403 4.11383L4.07554 4.11142L3.73634 3.89942ZM7.48829 3.89942L7.14908 4.11143L7.15061 4.11383L7.48829 3.89942ZM6.69142 25V25.4H6.91026L7.02827 25.2157L6.69142 25ZM22.0312 1.04396L22.3681 1.25966L22.7624 0.643951H22.0312V1.04396ZM19.3418 1.04396V0.643951H19.1232L19.0052 0.82792L19.3418 1.04396ZM3.96876 25L3.63211 24.784L3.2368 25.4H3.96876V25ZM23.9238 14.79L23.6105 15.0387L23.6121 15.0407L23.9238 14.79ZM16.8184 23.5889L16.5054 23.838L16.5066 23.8395L16.8184 23.5889ZM18.4951 16.2344L18.8328 16.4488L18.8343 16.4464L18.4951 16.2344ZM22.2471 16.2344L21.9079 16.4464L21.9094 16.4488L22.2471 16.2344ZM5.61231 12.8643V13.2643C7.23585 13.2643 8.54151 12.6828 9.47834 11.5026L9.16505 11.2539L8.85208 11.0048C8.08448 11.9718 7.02133 12.4643 5.61231 12.4643V12.8643ZM9.16505 11.2539L9.47834 11.5026C10.4142 10.3267 10.86 8.76312 10.86 6.8545H10.46H10.06C10.06 8.64249 9.64273 10.0114 8.85208 11.0048L9.16505 11.2539ZM10.46 6.8545H10.86V6.8379H10.46H10.06V6.8545H10.46ZM10.46 6.8379H10.86C10.86 4.92956 10.414 3.37001 9.47677 2.20443L9.16505 2.45509L8.85333 2.70575C9.64262 3.6873 10.06 5.04963 10.06 6.8379H10.46ZM9.16505 2.45509L9.47834 2.20639C8.54151 1.02623 7.23585 0.444733 5.61231 0.444733V0.844733V1.24474C7.02133 1.24474 8.08415 1.73682 8.85175 2.70379L9.16505 2.45509ZM5.61231 0.844733V0.444733C3.99876 0.444733 2.69475 1.02688 1.74786 2.20443L2.05958 2.45509L2.3713 2.70575C3.15097 1.73616 4.21545 1.24474 5.61231 1.24474V0.844733ZM2.05958 2.45509L1.74786 2.20443C0.810583 3.37001 0.364655 4.92956 0.364655 6.8379H0.764655H1.16466C1.16466 5.04963 1.58201 3.6873 2.3713 2.70575L2.05958 2.45509ZM0.764655 6.8379H0.364655V6.8545H0.764655H1.16466V6.8379H0.764655ZM0.764655 6.8545H0.364655C0.364655 8.76312 0.810691 10.3271 1.74661 11.503L2.05958 11.2539L2.37255 11.0048C1.5819 10.0114 1.16466 8.64249 1.16466 6.8545H0.764655ZM2.05958 11.2539L1.74786 11.5046C2.69475 12.6821 3.99876 13.2643 5.61231 13.2643V12.8643V12.4643C4.21545 12.4643 3.15097 11.9728 2.3713 11.0032L2.05958 11.2539ZM5.61231 10.8721V10.4721C4.94787 10.4721 4.44816 10.1938 4.07554 9.59758L3.73634 9.80958L3.39714 10.0216C3.90994 10.842 4.66088 11.2721 5.61231 11.2721V10.8721ZM3.73634 9.80958L4.07554 9.59758C3.68794 8.97743 3.47228 8.07684 3.47228 6.8545H3.07228H2.67228C2.67228 8.15561 2.89932 9.22506 3.39714 10.0216L3.73634 9.80958ZM3.07228 6.8545H3.47228V6.8379H3.07228H2.67228V6.8545H3.07228ZM3.07228 6.8379H3.47228C3.47228 5.61497 3.68817 4.72156 4.07403 4.11383L3.73634 3.89942L3.39865 3.68502C2.8991 4.47182 2.67228 5.53739 2.67228 6.8379H3.07228ZM3.73634 3.89942L4.07554 4.11142C4.44816 3.51523 4.94787 3.23692 5.61231 3.23692V2.83692V2.43692C4.66088 2.43692 3.90994 2.86695 3.39714 3.68742L3.73634 3.89942ZM5.61231 2.83692V3.23692C6.27676 3.23692 6.77646 3.51524 7.14908 4.11143L7.48829 3.89942L7.82749 3.68742C7.31469 2.86695 6.56375 2.43692 5.61231 2.43692V2.83692ZM7.48829 3.89942L7.15061 4.11383C7.53646 4.72156 7.75235 5.61497 7.75235 6.8379H8.15235H8.55235C8.55235 5.53739 8.32553 4.47182 7.82598 3.68502L7.48829 3.89942ZM8.15235 6.8379H7.75235V6.8545H8.15235H8.55235V6.8379H8.15235ZM8.15235 6.8545H7.75235C7.75235 8.07684 7.53669 8.97743 7.14909 9.59758L7.48829 9.80958L7.82749 10.0216C8.32531 9.22506 8.55235 8.15561 8.55235 6.8545H8.15235ZM7.48829 9.80958L7.14909 9.59758C6.77647 10.1938 6.27676 10.4721 5.61231 10.4721V10.8721V11.2721C6.56375 11.2721 7.31469 10.842 7.82749 10.0216L7.48829 9.80958ZM6.69142 25L7.02827 25.2157L22.3681 1.25966L22.0312 1.04396L21.6944 0.82825L6.35456 24.7843L6.69142 25ZM22.0312 1.04396V0.643951H19.3418V1.04396V1.44396H22.0312V1.04396ZM19.3418 1.04396L19.0052 0.82792L3.63211 24.784L3.96876 25L4.30541 25.216L19.6784 1.25999L19.3418 1.04396ZM3.96876 25V25.4H6.69142V25V24.6H3.96876V25ZM20.3711 25.1992V25.5992C21.9946 25.5992 23.3003 25.0177 24.2371 23.8376L23.9238 23.5889L23.6109 23.3398C22.8433 24.3067 21.7801 24.7992 20.3711 24.7992V25.1992ZM23.9238 23.5889L24.2371 23.8376C25.173 22.6617 25.6188 21.0981 25.6188 19.1895H25.2188H24.8187C24.8187 20.9774 24.4015 22.3464 23.6109 23.3398L23.9238 23.5889ZM25.2188 19.1895H25.6188V19.1729H25.2188H24.8187V19.1895H25.2188ZM25.2188 19.1729H25.6188C25.6188 17.2645 25.1728 15.705 24.2355 14.5394L23.9238 14.79L23.6121 15.0407C24.4014 16.0223 24.8187 17.3846 24.8187 19.1729H25.2188ZM23.9238 14.79L24.2371 14.5413C23.3003 13.3612 21.9946 12.7797 20.3711 12.7797V13.1797V13.5797C21.7801 13.5797 22.8429 14.0718 23.6105 15.0387L23.9238 14.79ZM20.3711 13.1797V12.7797C18.7575 12.7797 17.4535 13.3618 16.5066 14.5394L16.8184 14.79L17.1301 15.0407C17.9098 14.0711 18.9742 13.5797 20.3711 13.5797V13.1797ZM16.8184 14.79L16.5066 14.5394C15.5694 15.705 15.1234 17.2645 15.1234 19.1729H15.5234H15.9234C15.9234 17.3846 16.3408 16.0223 17.1301 15.0407L16.8184 14.79ZM15.5234 19.1729H15.1234V19.1895H15.5234H15.9234V19.1729H15.5234ZM15.5234 19.1895H15.1234C15.1234 21.0981 15.5695 22.6621 16.5054 23.838L16.8184 23.5889L17.1313 23.3398C16.3407 22.3464 15.9234 20.9774 15.9234 19.1895H15.5234ZM16.8184 23.5889L16.5066 23.8395C17.4535 25.0171 18.7575 25.5992 20.3711 25.5992V25.1992V24.7992C18.9742 24.7992 17.9098 24.3078 17.1301 23.3382L16.8184 23.5889ZM20.3711 23.207V22.807C19.7066 22.807 19.2069 22.5287 18.8343 21.9325L18.4951 22.1445L18.1559 22.3565C18.6687 23.177 19.4197 23.607 20.3711 23.607V23.207ZM18.4951 22.1445L18.8343 21.9325C18.4467 21.3124 18.2311 20.4118 18.2311 19.1895H17.8311H17.4311C17.4311 20.4906 17.6581 21.56 18.1559 22.3565L18.4951 22.1445ZM17.8311 19.1895H18.2311V19.1729H17.8311H17.4311V19.1895H17.8311ZM17.8311 19.1729H18.2311C18.2311 17.9499 18.4469 17.0565 18.8328 16.4488L18.4951 16.2344L18.1574 16.02C17.6579 16.8068 17.4311 17.8723 17.4311 19.1729H17.8311ZM18.4951 16.2344L18.8343 16.4464C19.2069 15.8502 19.7066 15.5719 20.3711 15.5719V15.1719V14.7719C19.4197 14.7719 18.6687 15.2019 18.1559 16.0224L18.4951 16.2344ZM20.3711 15.1719V15.5719C21.0355 15.5719 21.5353 15.8502 21.9079 16.4464L22.2471 16.2344L22.5863 16.0224C22.0735 15.2019 21.3225 14.7719 20.3711 14.7719V15.1719ZM22.2471 16.2344L21.9094 16.4488C22.2952 17.0565 22.5111 17.9499 22.5111 19.1729H22.9111H23.3111C23.3111 17.8723 23.0843 16.8068 22.5848 16.02L22.2471 16.2344ZM22.9111 19.1729H22.5111V19.1895H22.9111H23.3111V19.1729H22.9111ZM22.9111 19.1895H22.5111C22.5111 20.4118 22.2955 21.3124 21.9079 21.9325L22.2471 22.1445L22.5863 22.3565C23.0841 21.56 23.3111 20.4906 23.3111 19.1895H22.9111ZM22.2471 22.1445L21.9079 21.9325C21.5353 22.5287 21.0355 22.807 20.3711 22.807V23.207V23.607C21.3225 23.607 22.0735 23.177 22.5863 22.3565L22.2471 22.1445Z" fill="black"/>
</g>
</g>
<defs>
<clipPath id="clip0_124_85">
<rect width="26" height="26" fill="white"/>
</clipPath>
</defs>
</svg>
