<svg width="29" height="26" viewBox="0 0 29 26" fill="none" xmlns="http://www.w3.org/2000/svg">
<path d="M0.883789 7.582H8.11621V6.4746H0.883789V7.582ZM3.94629 10.7129H5.05371V3.3438H3.94629V10.7129Z" fill="black"/>
<mask id="mask0_124_75" style="mask-type:luminance" maskUnits="userSpaceOnUse" x="0" y="2" width="9" height="10">
<path d="M9 2H0V12H9V2Z" fill="white"/>
<path d="M0.883789 7.582H8.11621V6.4746H0.883789V7.582ZM3.94629 10.7129H5.05371V3.3438H3.94629V10.7129Z" fill="black"/>
</mask>
<g mask="url(#mask0_124_75)">
<path d="M0.883801 7.582H0.0838013V8.382H0.883801V7.582ZM8.11622 7.582V8.382H8.91622V7.582H8.11622ZM8.11622 6.4746H8.91622V5.6746H8.11622V6.4746ZM0.883801 6.4746V5.6746H0.0838013V6.4746H0.883801ZM3.9463 10.7129H3.1463V11.5129H3.9463V10.7129ZM5.05372 10.7129V11.5129H5.85372V10.7129H5.05372ZM5.05372 3.3438H5.85372V2.5437H5.05372V3.3438ZM3.9463 3.3438V2.5437H3.1463V3.3438H3.9463ZM0.883801 7.582V8.382H8.11622V7.582V6.782H0.883801V7.582ZM8.11622 7.582H8.91622V6.4746H8.11622H7.31622V7.582H8.11622ZM8.11622 6.4746V5.6746H0.883801V6.4746V7.2746H8.11622V6.4746ZM0.883801 6.4746H0.0838013V7.582H0.883801H1.6838V6.4746H0.883801ZM3.9463 10.7129V11.5129H5.05372V10.7129V9.9129H3.9463V10.7129ZM5.05372 10.7129H5.85372V3.3438H5.05372H4.25372V10.7129H5.05372ZM5.05372 3.3438V2.5437H3.9463V3.3438V4.1438H5.05372V3.3438ZM3.9463 3.3438H3.1463V10.7129H3.9463H4.7463V3.3438H3.9463Z" fill="black"/>
</g>
<path d="M22.8387 1.0646L20.3996 0.182404L4.89044 24.3647L7.32955 25.2469L22.8387 1.0646Z" fill="black"/>
<path d="M18.125 20.1094H26.875V17.8945H18.125V20.1094Z" fill="black"/>
</svg>
