<svg width="24" height="6" viewBox="0 0 24 6" fill="none" xmlns="http://www.w3.org/2000/svg">
<g clip-path="url(#clip0_124_107)">
<path d="M0.398438 4.62891H23.5801V1.14844H0.398438V4.62891Z" fill="white"/>
<mask id="mask0_124_107" style="mask-type:luminance" maskUnits="userSpaceOnUse" x="-1" y="0" width="25" height="6">
<path d="M24 0H-1V6H24V0Z" fill="white"/>
<path d="M0.398438 4.62891H23.5801V1.14844H0.398438V4.62891Z" fill="black"/>
</mask>
<g mask="url(#mask0_124_107)">
<path d="M0.398444 4.62891H-0.0015564V5.02891H0.398444V4.62891ZM23.5801 4.62891V5.02891H23.9801V4.62891H23.5801ZM23.5801 1.14844H23.9801V0.748436H23.5801V1.14844ZM0.398444 1.14844V0.748436H-0.0015564V1.14844H0.398444ZM0.398444 4.62891V5.02891H23.5801V4.62891V4.22891H0.398444V4.62891ZM23.5801 4.62891H23.9801V1.14844H23.5801H23.1801V4.62891H23.5801ZM23.5801 1.14844V0.748436H0.398444V1.14844V1.54844H23.5801V1.14844ZM0.398444 1.14844H-0.0015564V4.62891H0.398444H0.798444V1.14844H0.398444Z" fill="white"/>
</g>
</g>
<defs>
<clipPath id="clip0_124_107">
<rect width="24" height="6" fill="white"/>
</clipPath>
</defs>
</svg>
